HIERARCHY
ROOT pelvis
{
  OFFSET 0 100 0
  CHANNELS 6 Xposition Yposition Zposition Zrotation Xrotation Yrotation
  JOINT pelvis_right_femur
  {
    OFFSET -10.78128 -3.44521 -0.5502486
    CHANNELS 3 Zrotation Xrotation Yrotation
    JOINT right_femur_tibia
    {
      OFFSET -0.8047443 -44.0398 -0.1307829
      CHANNELS 3 Zrotation Xrotation Yrotation
      JOINT right_tibia_foot
      {
        OFFSET 3.006224 -47.83518 -5
        CHANNELS 3 Zrotation Xrotation Yrotation
        End Site
        {
          OFFSET 0 -5 15
        }
      }
    }
  }
  JOINT pelvis_left_femur
  {
    OFFSET 10.78128 -3.44521 -0.5502486
    CHANNELS 3 Zrotation Xrotation Yrotation
    JOINT left_femur_tibia
    {
      OFFSET 0.8047443 -44.0398 -0.1307829
      CHANNELS 3 Zrotation Xrotation Yrotation
      JOINT left_tibia_foot
      {
        OFFSET -4.370144 -48.10324 -4.275266
        CHANNELS 3 Zrotation Xrotation Yrotation
        End Site
        {
          OFFSET 0 -5 15
        }
      }
    }
  }
  JOINT pelvis_spine1
  {
    OFFSET 0 6.468898 -3.129235
    CHANNELS 3 Zrotation Xrotation Yrotation
    JOINT spine1
    {
      OFFSET 0 23.15396 4.99043
      CHANNELS 3 Zrotation Xrotation Yrotation
      JOINT spine2
      {
        OFFSET 0 20.79997 -5.064912
        CHANNELS 3 Zrotation Xrotation Yrotation
        JOINT neck
        {
          OFFSET 0 14.38658 9.616178
          CHANNELS 3 Zrotation Xrotation Yrotation
          End Site
          {
            OFFSET 0 20 0
          }
        }
      }
      JOINT right_manubrium
      {
        OFFSET -5.722621 16.35077 3.967754
        CHANNELS 3 Zrotation Xrotation Yrotation
        JOINT right_clavicle
        {
          OFFSET -13.16364 1.694482 -4.693211
          CHANNELS 3 Zrotation Xrotation Yrotation
          JOINT right_humerus
          {
            OFFSET -28.5034 -0.3100689 -2.792744
            CHANNELS 3 Zrotation Xrotation Yrotation
            JOINT right_radius
            {
              OFFSET -25.15693 0.02248979 -1.271978
              CHANNELS 3 Zrotation Xrotation Yrotation
              End Site
              {
                OFFSET -15 0 0
              }
            }
          }
        }
      }
      JOINT left_manubrium
      {
        OFFSET 5.722621 16.35077 3.967754
        CHANNELS 3 Zrotation Xrotation Yrotation
        JOINT left_clavicle
        {
          OFFSET 13.16364 1.694482 -4.693211
          CHANNELS 3 Zrotation Xrotation Yrotation
          JOINT left_humerus
          {
            OFFSET 29.39168 -1.063119 -2.237045
            CHANNELS 3 Zrotation Xrotation Yrotation
            JOINT left_radius
            {
              OFFSET 24.59957 -0.9528479 0.9047498
              CHANNELS 3 Zrotation Xrotation Yrotation
              End Site
              {
                OFFSET 15 -0 -0
              }
            }
          }
        }
      }
    }
  }
}
MOTION
Frames: 9
Frame Time: 0.0416666666667
0 103.5113 0 1.260547 -2.928806 0.2592847 1.694222 -14.84653 5.800894 -0 34.42123 -0 -5.522529 -11.80752 -3.642538 -6.790938 10.7417 -19.46961 -0 4.76292 -0 5.832406 -17.16276 23.49691 -2.462407 -2.345932 6.538453 1.765279 10.12648 -7.185308 1.224229 21.35568 5.433117 1.464042 -24.2689 8.768123 3.444741 -21.71933 11.55789 85.2903 35.03949 -14.6161 -0 0 18.96438 -11.16213 8.824676 6.065263 5.393305 -19.85695 0.3699548 -91.1294 18.99383 23.2231 0 0 -13.16473 13.96762 13.60972 -3.741086
0.3318089 103.346 2.444004 1.001504 -2.418843 0.5071403 2.161059 -18.13726 5.965604 -0 35.27391 -0 -5.146761 -11.21795 -4.012042 -6.628795 11.61086 -19.49346 -0 5.214596 -0 5.217231 -18.34574 22.97943 -2.387938 -2.171291 6.306488 1.905312 10.17664 -7.28214 1.163577 21.26875 5.706258 1.736553 -24.44589 8.785052 3.627052 -21.27608 11.64301 85.56753 35.09563 -15.27198 -0 0 18.06631 -11.17912 8.932298 6.110486 5.488522 -20.04967 0.1510128 -90.9896 19.16289 22.61869 0 0 -13.9167 13.68103 13.33 -3.300057
0.653386 102.9821 4.989566 0.6206973 -1.504874 0.6740176 2.976607 -22.44606 6.110354 -0 31.6562 -0 -4.595681 -11.44247 -4.094242 -6.328833 12.41841 -19.18203 -0 5.649766 -0 5.377203 -19.41534 22.28309 -2.110206 -1.656063 5.477576 2.488767 10.23014 -7.80303 1.041265 20.88133 6.439433 2.338997 -25.10385 9.025924 3.963403 -19.99757 11.91194 86.88864 35.14743 -17.70822 -0 0 15.44502 -10.59962 9.106771 5.669452 5.884435 -20.64518 -0.3161742 -90.15526 19.05975 20.31048 0 0 -16.53833 13.55576 12.4915 -3.176877
0.9635118 102.5024 7.644624 0.246242 -0.3987266 0.7700238 3.893635 -26.09465 6.221999 -0 27.94948 -0 -4.565284 -10.91422 -3.698662 -6.198426 12.94461 -19.04056 -0 6.255536 -0 5.89656 -20.21152 21.98132 -1.931243 -1.402646 4.965335 2.864151 10.20688 -8.142401 0.971285 20.58004 6.878291 2.684586 -25.52863 9.194639 4.153684 -19.25627 12.03567 87.68056 35.1736 -19.21589 -0 0 13.91787 -10.18343 9.260322 5.41874 6.164059 -21.02092 -0.5858471 -89.59503 18.99526 18.87355 0 0 -18.37895 13.48088 11.92357 -3.08329
1.252288 101.8289 10.76054 -0.0006464368 0.07553027 0.878399 4.25828 -28.87844 5.334471 -0 23.3808 -0 -4.689507 -8.572511 -3.29433 -6.05535 13.47252 -17.69792 -0 7.380592 -0 5.506331 -20.96231 20.91448 -1.761166 -1.216341 4.485708 3.23139 10.12959 -8.475699 0.9199549 20.25452 7.272657 2.970624 -25.95655 9.395921 4.29839 -18.61208 12.11871 88.42505 35.20099 -20.63435 -0 0 12.58922 -9.670353 9.395539 5.132888 6.46289 -21.36402 -0.7945732 -89.03875 18.89654 17.51583 0 0 -20.24449 13.50289 11.37368 -3.114386
1.500241 100.9985 14.47094 -0.08991981 0.07397817 1.056776 4.162951 -30.53598 3.974182 -0 19.33398 -0 -4.889259 -5.782661 -3.101264 -5.940119 14.17787 -15.97872 -0 8.757817 -0 4.372922 -21.62643 19.50215 -1.620192 -1.070135 4.112789 3.523015 10.06949 -8.748251 0.8672675 19.95948 7.576084 3.188346 -26.264 9.518039 4.368234 -18.13087 12.19079 88.99663 35.15859 -21.69745 -0 0 11.56777 -9.408317 9.562886 5.00047 6.699447 -21.6512 -0.9648589 -88.5222 18.69682 16.40983 0 0 -21.82413 13.46594 10.86135 -3.120053
1.684604 100.0347 18.88037 -0.00688849 -0.4830449 1.355749 3.632312 -30.991 2.360073 -0 16.00047 -0 -4.898336 -3.226714 -3.416526 -5.782938 15.16896 -13.93659 -0 10.55382 -0 2.362405 -22.06331 17.6091 -1.501643 -0.9450093 3.81227 3.762655 10.02548 -8.982094 0.8120324 19.69139 7.818292 3.359077 -26.48427 9.582822 4.382414 -17.75317 12.26096 89.46017 35.0647 -22.52553 -0 0 10.73935 -9.330977 9.744314 4.96481 6.893419 -21.90487 -1.107841 -88.02434 18.40763 15.45553 0 0 -23.204 13.39957 10.37642 -3.135404
1.798786 99.0426 23.97937 0.1434163 -1.253432 1.780983 3.080751 -30.57127 1.038414 -0 13.62551 -0 -4.729891 -1.45916 -4.121027 -5.575845 16.25103 -12.02326 -0 12.92966 -0 0.006153453 -22.03486 15.57542 -1.40849 -0.83268 3.587402 3.942938 10.01129 -9.172223 0.7522897 19.4676 7.998337 3.487659 -26.60595 9.579804 4.349124 -17.4699 12.33464 89.81533 34.91849 -23.11627 -0 0 10.08568 -9.46366 9.935238 5.031132 7.034321 -22.12681 -1.232516 -87.55933 18.04623 14.6625 0 0 -24.33331 13.28854 9.937314 -3.138193
1.8476 98.14634 29.70605 0.2737892 -2.055507 2.290174 2.777285 -29.48329 0.2117219 -0 12.1257 -0 -4.552564 -0.4596458 -4.960927 -5.30438 17.16398 -10.38915 -0 16.17875 -0 -2.211355 -21.31529 13.67284 -1.338135 -0.7300974 3.42652 4.069889 10.02589 -9.322786 0.6904631 19.29204 8.124987 3.581107 -26.64319 9.521808 4.279529 -17.26249 12.41095 90.08492 34.72911 -23.51397 -0 0 9.571911 -9.763391 10.12238 5.1719 7.127959 -22.32155 -1.344077 -87.13446 17.64114 14.01083 0 0 -25.22603 13.14673 9.554741 -3.132872
